<svg width="720" height="540" viewBox="0 0 720 540" fill="none" xmlns="http://www.w3.org/2000/svg">
  <circle cx="360" cy="260" r="22" fill="#ff8c00" stroke="#0a0a0a" stroke-width="6"/>

  <circle cx="150" cy="160" r="16" fill="#ff8c00" stroke="#0a0a0a" stroke-width="4"/>
  <circle cx="570" cy="160" r="16" fill="#ff8c00" stroke="#0a0a0a" stroke-width="4"/>
  <circle cx="190" cy="360" r="16" fill="#ff8c00" stroke="#0a0a0a" stroke-width="4"/>
  <circle cx="530" cy="360" r="16" fill="#ff8c00" stroke="#0a0a0a" stroke-width="4"/>

  <path d="M150 160L360 260" stroke="#0a0a0a" stroke-width="4"/>
  <path d="M570 160L360 260" stroke="#0a0a0a" stroke-width="4"/>
  <path d="M190 360L360 260" stroke="#0a0a0a" stroke-width="4"/>
  <path d="M530 360L360 260" stroke="#0a0a0a" stroke-width="4"/>
  <path d="M150 160L570 160" stroke="#0a0a0a" stroke-width="4"/>
  <path d="M190 360L530 360" stroke="#0a0a0a" stroke-width="4"/>
  <path d="M150 160L190 360" stroke="#0a0a0a" stroke-width="4"/>
  <path d="M570 160L530 360" stroke="#0a0a0a" stroke-width="4"/>
  <path d="M220 120L360 260" stroke="#0a0a0a" stroke-width="4"/>
  <path d="M500 120L360 260" stroke="#0a0a0a" stroke-width="4"/>
  <path d="M260 440L360 260" stroke="#0a0a0a" stroke-width="4"/>
  <path d="M460 440L360 260" stroke="#0a0a0a" stroke-width="4"/>
  <path d="M90 260L360 260" stroke="#0a0a0a" stroke-width="4"/>
  <path d="M630 260L360 260" stroke="#0a0a0a" stroke-width="4"/>
  <path d="M90 260L150 160" stroke="#0a0a0a" stroke-width="4"/>
  <path d="M630 260L570 160" stroke="#0a0a0a" stroke-width="4"/>
  <path d="M90 260L190 360" stroke="#0a0a0a" stroke-width="4"/>
  <path d="M630 260L530 360" stroke="#0a0a0a" stroke-width="4"/>

  <circle cx="120" cy="120" r="28" fill="#ffffff" stroke="#0a0a0a" stroke-width="6"/>
  <circle cx="110" cy="112" r="4" fill="#0a0a0a"/>
  <circle cx="130" cy="112" r="4" fill="#0a0a0a"/>
  <path d="M112 130h16" stroke="#0a0a0a" stroke-width="4"/>
  <rect x="92" y="148" width="56" height="24" fill="#ffffff" stroke="#0a0a0a" stroke-width="4"/>

  <circle cx="600" cy="120" r="28" fill="#ffffff" stroke="#0a0a0a" stroke-width="6"/>
  <circle cx="590" cy="112" r="4" fill="#0a0a0a"/>
  <circle cx="610" cy="112" r="4" fill="#0a0a0a"/>
  <path d="M592 130h16" stroke="#0a0a0a" stroke-width="4"/>
  <rect x="572" y="148" width="56" height="24" fill="#ffffff" stroke="#0a0a0a" stroke-width="4"/>

  <circle cx="160" cy="410" r="28" fill="#ffffff" stroke="#0a0a0a" stroke-width="6"/>
  <circle cx="150" cy="402" r="4" fill="#0a0a0a"/>
  <circle cx="170" cy="402" r="4" fill="#0a0a0a"/>
  <path d="M152 420h16" stroke="#0a0a0a" stroke-width="4"/>
  <rect x="132" y="438" width="56" height="24" fill="#ffffff" stroke="#0a0a0a" stroke-width="4"/>

  <circle cx="560" cy="410" r="28" fill="#ffffff" stroke="#0a0a0a" stroke-width="6"/>
  <circle cx="550" cy="402" r="4" fill="#0a0a0a"/>
  <circle cx="570" cy="402" r="4" fill="#0a0a0a"/>
  <path d="M552 420h16" stroke="#0a0a0a" stroke-width="4"/>
  <rect x="532" y="438" width="56" height="24" fill="#ffffff" stroke="#0a0a0a" stroke-width="4"/>

  <rect x="260" y="70" width="200" height="56" fill="#ffffff" stroke="#0a0a0a" stroke-width="6"/>
  <rect x="290" y="90" width="140" height="14" fill="#ff8c00" stroke="#0a0a0a" stroke-width="4"/>

  <rect x="220" y="450" width="280" height="60" fill="#0a0a0a" stroke="#0a0a0a" stroke-width="6"/>
  <rect x="250" y="470" width="220" height="12" fill="#f5f0e8" stroke="#f5f0e8" stroke-width="4"/>

  <circle cx="220" cy="120" r="10" fill="#ff8c00" stroke="#0a0a0a" stroke-width="4"/>
  <circle cx="500" cy="120" r="10" fill="#ff8c00" stroke="#0a0a0a" stroke-width="4"/>
  <circle cx="260" cy="440" r="10" fill="#ff8c00" stroke="#0a0a0a" stroke-width="4"/>
  <circle cx="460" cy="440" r="10" fill="#ff8c00" stroke="#0a0a0a" stroke-width="4"/>
  <circle cx="280" cy="210" r="10" fill="#ff8c00" stroke="#0a0a0a" stroke-width="4"/>
  <circle cx="440" cy="210" r="10" fill="#ff8c00" stroke="#0a0a0a" stroke-width="4"/>
  <circle cx="300" cy="330" r="10" fill="#ff8c00" stroke="#0a0a0a" stroke-width="4"/>
  <circle cx="420" cy="330" r="10" fill="#ff8c00" stroke="#0a0a0a" stroke-width="4"/>
  <circle cx="90" cy="260" r="10" fill="#ff8c00" stroke="#0a0a0a" stroke-width="4"/>
  <circle cx="630" cy="260" r="10" fill="#ff8c00" stroke="#0a0a0a" stroke-width="4"/>
  <circle cx="200" cy="250" r="8" fill="#ff8c00" stroke="#0a0a0a" stroke-width="4"/>
  <circle cx="520" cy="250" r="8" fill="#ff8c00" stroke="#0a0a0a" stroke-width="4"/>
</svg>
