<svg width="720" height="540" viewBox="0 0 720 540" fill="none" xmlns="http://www.w3.org/2000/svg">
  <rect width="720" height="540" fill="#f5f0e8"/>

  <rect x="80" y="120" width="220" height="160" fill="#ffffff" stroke="#0a0a0a" stroke-width="6"/>
  <rect x="100" y="140" width="120" height="18" fill="#ff8c00" stroke="#0a0a0a" stroke-width="4"/>
  <rect x="100" y="170" width="160" height="14" fill="#ffffff" stroke="#0a0a0a" stroke-width="4"/>
  <rect x="100" y="194" width="140" height="14" fill="#ffffff" stroke="#0a0a0a" stroke-width="4"/>
  <rect x="100" y="218" width="100" height="14" fill="#ffffff" stroke="#0a0a0a" stroke-width="4"/>

  <circle cx="430" cy="170" r="70" fill="#ffffff" stroke="#0a0a0a" stroke-width="6"/>
  <circle cx="405" cy="160" r="6" fill="#0a0a0a"/>
  <circle cx="455" cy="160" r="6" fill="#0a0a0a"/>
  <path d="M410 188h40" stroke="#0a0a0a" stroke-width="6"/>
  <path d="M360 150h20" stroke="#0a0a0a" stroke-width="6"/>
  <path d="M480 150h20" stroke="#0a0a0a" stroke-width="6"/>

  <rect x="330" y="240" width="200" height="140" fill="#ff8c00" stroke="#0a0a0a" stroke-width="6"/>
  <rect x="350" y="260" width="160" height="24" fill="#ffffff" stroke="#0a0a0a" stroke-width="4"/>
  <rect x="350" y="292" width="120" height="20" fill="#ffffff" stroke="#0a0a0a" stroke-width="4"/>
  <rect x="350" y="320" width="90" height="20" fill="#ffffff" stroke="#0a0a0a" stroke-width="4"/>

  <rect x="220" y="400" width="280" height="60" fill="#0a0a0a" stroke="#0a0a0a" stroke-width="6"/>
  <rect x="250" y="412" width="220" height="16" fill="#f5f0e8" stroke="#f5f0e8" stroke-width="4"/>
  <rect x="250" y="436" width="180" height="12" fill="#f5f0e8" stroke="#f5f0e8" stroke-width="4"/>

  <rect x="540" y="120" width="100" height="80" fill="#ffffff" stroke="#0a0a0a" stroke-width="6"/>
  <path d="M560 150h60" stroke="#0a0a0a" stroke-width="6"/>
  <path d="M560 170h40" stroke="#0a0a0a" stroke-width="6"/>

  <circle cx="590" cy="260" r="26" fill="#ff8c00" stroke="#0a0a0a" stroke-width="6"/>
  <path d="M578 260l8 8 18-18" stroke="#0a0a0a" stroke-width="6" fill="none"/>
</svg>
