<svg width="720" height="540" viewBox="0 0 720 540" fill="none" xmlns="http://www.w3.org/2000/svg">
  <rect width="720" height="540" fill="#f5f0e8"/>

  <path d="M208 190c0-44 36-80 80-80h32c44 0 80 36 80 80 0 30-18 54-42 68-20 12-30 24-30 44" stroke="#0a0a0a" stroke-width="18" fill="none"/>
  <circle cx="336" cy="350" r="14" fill="#0a0a0a"/>

  <path d="M420 170c0-34 28-62 62-62h22c34 0 62 28 62 62 0 22-12 40-30 50-16 8-24 18-24 34" stroke="#0a0a0a" stroke-width="14" fill="none"/>
  <circle cx="520" cy="304" r="10" fill="#0a0a0a"/>

  <path d="M120 240c0-28 22-50 50-50h18c28 0 50 22 50 50 0 18-10 32-24 40-12 6-18 14-18 26" stroke="#0a0a0a" stroke-width="10" fill="none"/>
  <circle cx="200" cy="338" r="8" fill="#0a0a0a"/>

  <rect x="120" y="390" width="180" height="56" fill="#ff8c00" stroke="#0a0a0a" stroke-width="4"/>
  <rect x="320" y="390" width="200" height="56" fill="#ffffff" stroke="#0a0a0a" stroke-width="4"/>
  <rect x="540" y="390" width="120" height="56" fill="#0a0a0a" stroke="#0a0a0a" stroke-width="4"/>
</svg>
