<svg width="720" height="540" viewBox="0 0 720 540" fill="none" xmlns="http://www.w3.org/2000/svg">
  <rect width="720" height="540" fill="#f5f0e8"/>
  <rect x="44" y="44" width="632" height="452" fill="#ffffff" stroke="#0a0a0a" stroke-width="6"/>

  <rect x="80" y="72" width="220" height="130" fill="#ffffff" stroke="#0a0a0a" stroke-width="4"/>
  <circle cx="124" cy="118" r="22" fill="#ff8c00" stroke="#0a0a0a" stroke-width="4"/>
  <path d="M108 154h120" stroke="#0a0a0a" stroke-width="5"/>
  <path d="M108 176h100" stroke="#0a0a0a" stroke-width="5"/>

  <rect x="110" y="96" width="220" height="130" fill="#ffffff" stroke="#0a0a0a" stroke-width="4"/>
  <circle cx="154" cy="142" r="22" fill="#ff8c00" stroke="#0a0a0a" stroke-width="4"/>
  <path d="M138 178h120" stroke="#0a0a0a" stroke-width="5"/>
  <path d="M138 200h100" stroke="#0a0a0a" stroke-width="5"/>

  <rect x="140" y="120" width="220" height="130" fill="#ffffff" stroke="#0a0a0a" stroke-width="4"/>
  <circle cx="184" cy="166" r="22" fill="#ff8c00" stroke="#0a0a0a" stroke-width="4"/>
  <path d="M168 202h120" stroke="#0a0a0a" stroke-width="5"/>
  <path d="M168 224h100" stroke="#0a0a0a" stroke-width="5"/>

  <rect x="400" y="120" width="120" height="200" fill="#ffffff" stroke="#0a0a0a" stroke-width="4"/>
  <path d="M400 180h120" stroke="#0a0a0a" stroke-width="4"/>
  <path d="M400 240h120" stroke="#0a0a0a" stroke-width="4"/>
  <rect x="520" y="140" width="64" height="160" fill="#0a0a0a" stroke="#0a0a0a" stroke-width="4"/>

  <rect x="420" y="340" width="220" height="120" fill="#ffffff" stroke="#0a0a0a" stroke-width="4"/>
  <circle cx="460" cy="372" r="22" fill="#ff8c00" stroke="#0a0a0a" stroke-width="4"/>
  <path d="M444 408h150" stroke="#0a0a0a" stroke-width="5"/>
  <path d="M444 430h130" stroke="#0a0a0a" stroke-width="5"/>

  <rect x="90" y="320" width="160" height="64" fill="#ff8c00" stroke="#0a0a0a" stroke-width="4" transform="rotate(-8 90 320)"/>
  <path d="M114 354h112" stroke="#0a0a0a" stroke-width="6" transform="rotate(-8 90 320)"/>
  <path d="M134 334l10 10 22-22" stroke="#0a0a0a" stroke-width="6" fill="none" transform="rotate(-8 90 320)"/>

  <circle cx="590" cy="430" r="44" fill="#ff8c00" stroke="#0a0a0a" stroke-width="6"/>
  <path d="M566 430h48" stroke="#0a0a0a" stroke-width="6"/>
  <path d="M582 414h24" stroke="#0a0a0a" stroke-width="6"/>
  <path d="M582 446h24" stroke="#0a0a0a" stroke-width="6"/>
</svg>
